# 3ds Max Wavefront OBJ Exporter v0.97b - (c)2007 guruware
# File Created: 22.03.2017 00:53:50

#
# object bloc_top_lp
#

v  -0.8695 2.2473 0.8064
v  0.8723 2.2473 0.8064
v  0.8723 2.2473 -0.9354
v  -0.8695 2.2473 -0.9354
v  -0.8695 0.7578 0.8064
v  0.8723 0.7578 0.8064
v  0.8723 0.7578 -0.9354
v  -0.8695 0.7578 -0.9354
# 8 vertices

vn 0.0000 1.0000 -0.0000
vn 0.0000 1.0000 -0.0000
vn 0.0000 1.0000 -0.0000
vn 0.0000 1.0000 -0.0000
vn 0.0000 0.0000 1.0000
vn 0.0000 0.0000 1.0000
vn 0.0000 0.0000 1.0000
vn 0.0000 0.0000 1.0000
vn 0.0000 0.0000 -1.0000
vn 0.0000 0.0000 -1.0000
vn 0.0000 0.0000 -1.0000
vn 0.0000 0.0000 -1.0000
vn 0.0000 -1.0000 0.0000
vn 0.0000 -1.0000 0.0000
vn 0.0000 -1.0000 0.0000
vn 0.0000 -1.0000 0.0000
vn 1.0000 0.0000 -0.0000
vn 1.0000 0.0000 -0.0000
vn 1.0000 0.0000 -0.0000
vn 1.0000 0.0000 -0.0000
vn -1.0000 0.0000 -0.0000
vn -1.0000 0.0000 -0.0000
vn -1.0000 0.0000 -0.0000
vn -1.0000 0.0000 -0.0000
# 24 vertex normals

vt 0.3492 0.4841 0.0000
vt 0.6046 0.7236 0.0000
vt 0.8252 0.7236 0.0000
vt 0.3492 0.2795 0.0000
vt 0.3492 0.9702 0.0000
vt 0.3009 0.7236 0.0000
vt 0.3009 0.5189 0.0000
vt 0.0803 0.7236 0.0000
vt 0.5698 0.4841 0.0000
vt 0.8252 0.5189 0.0000
vt 0.3492 0.0400 0.0000
vt 0.5698 0.0400 0.0000
vt 0.5698 0.2795 0.0000
vt 0.3492 0.5189 0.0000
vt 0.5698 0.9702 0.0000
vt 0.5698 0.7496 0.0000
vt 0.5698 0.7236 0.0000
vt 0.3492 0.2393 0.0000
vt 0.3492 0.7496 0.0000
vt 0.3492 0.7236 0.0000
vt 0.0803 0.5189 0.0000
vt 0.6046 0.5189 0.0000
vt 0.5698 0.5189 0.0000
vt 0.5698 0.2393 0.0000
# 24 texture coords

g bloc_top_lp
s off
f 4/9/1 1/1/2 2/4/3 3/13/4 
s 8
f 1/7/5 5/6/6 6/8/7 2/21/8 
s off
f 4/22/9 3/10/10 7/3/11 8/2/12 
s 1
f 7/15/13 6/5/14 5/19/15 8/16/16 
s 2
f 7/12/17 3/24/18 2/18/19 6/11/20 
f 5/20/21 1/14/22 4/23/23 8/17/24 
# 6 polygons

