# 3ds Max Wavefront OBJ Exporter v0.97b - (c)2007 guruware
# File Created: 21.03.2017 22:35:51

#
# object Cylinder006
#

v  11.6447 0.0000 -0.0000
v  11.5810 0.0000 1.2172
v  11.3903 0.0000 2.4211
v  11.0748 0.0000 3.5984
v  10.6380 0.0000 4.7363
v  10.0846 0.0000 5.8224
v  9.4208 0.0000 6.8446
v  8.6537 0.0000 7.7919
v  7.7919 0.0000 8.6537
v  6.8446 0.0000 9.4208
v  5.8224 0.0000 10.0846
v  4.7363 0.0000 10.6380
v  3.5984 0.0000 11.0748
v  2.4211 0.0000 11.3903
v  1.2172 0.0000 11.5810
v  -0.0000 0.0000 11.6447
v  -1.2172 0.0000 11.5810
v  -2.4211 0.0000 11.3903
v  -3.5984 0.0000 11.0748
v  -4.7363 0.0000 10.6380
v  -5.8224 0.0000 10.0846
v  -6.8446 0.0000 9.4208
v  -7.7919 0.0000 8.6537
v  -8.6537 0.0000 7.7919
v  -9.4208 0.0000 6.8446
v  -10.0846 0.0000 5.8224
v  -10.6380 0.0000 4.7364
v  -11.0748 0.0000 3.5984
v  -11.3903 0.0000 2.4211
v  -11.5810 0.0000 1.2172
v  -11.6447 0.0000 0.0000
v  -11.5810 0.0000 -1.2172
v  -11.3903 0.0000 -2.4211
v  -11.0748 0.0000 -3.5984
v  -10.6380 0.0000 -4.7363
v  -10.0847 0.0000 -5.8224
v  -9.4208 0.0000 -6.8446
v  -8.6538 0.0000 -7.7918
v  -7.7919 0.0000 -8.6537
v  -6.8446 0.0000 -9.4208
v  -5.8224 0.0000 -10.0846
v  -4.7364 0.0000 -10.6380
v  -3.5985 0.0000 -11.0748
v  -2.4211 0.0000 -11.3903
v  -1.2172 0.0000 -11.5810
v  -0.0000 0.0000 -11.6447
v  1.2172 0.0000 -11.5810
v  2.4210 0.0000 -11.3903
v  3.5984 0.0000 -11.0748
v  4.7363 0.0000 -10.6380
v  5.8223 0.0000 -10.0847
v  6.8446 0.0000 -9.4208
v  7.7918 0.0000 -8.6538
v  8.6537 0.0000 -7.7919
v  9.4208 0.0000 -6.8446
v  10.0846 0.0000 -5.8224
v  10.6380 0.0000 -4.7364
v  11.0748 0.0000 -3.5985
v  11.3903 0.0000 -2.4211
v  11.5810 0.0000 -1.2173
v  11.6447 -0.4658 -0.0000
v  11.5810 -0.4658 1.2172
v  11.3903 -0.4658 2.4211
v  11.0748 -0.4658 3.5984
v  10.6380 -0.4658 4.7363
v  10.0846 -0.4658 5.8224
v  9.4208 -0.4658 6.8446
v  8.6537 -0.4658 7.7919
v  7.7919 -0.4658 8.6537
v  6.8446 -0.4658 9.4208
v  5.8224 -0.4658 10.0846
v  4.7363 -0.4658 10.6380
v  3.5984 -0.4658 11.0748
v  2.4211 -0.4658 11.3903
v  1.2172 -0.4658 11.5810
v  -0.0000 -0.4658 11.6447
v  -1.2172 -0.4658 11.5810
v  -2.4211 -0.4658 11.3903
v  -3.5984 -0.4658 11.0748
v  -4.7363 -0.4658 10.6380
v  -5.8224 -0.4658 10.0846
v  -6.8446 -0.4658 9.4208
v  -7.7919 -0.4658 8.6537
v  -8.6537 -0.4658 7.7919
v  -9.4208 -0.4658 6.8446
v  -10.0846 -0.4658 5.8224
v  -10.6380 -0.4658 4.7364
v  -11.0748 -0.4658 3.5984
v  -11.3903 -0.4658 2.4211
v  -11.5810 -0.4658 1.2172
v  -11.6447 -0.4658 0.0000
v  -11.5810 -0.4658 -1.2172
v  -11.3903 -0.4658 -2.4211
v  -11.0748 -0.4658 -3.5984
v  -10.6380 -0.4658 -4.7363
v  -10.0847 -0.4658 -5.8224
v  -9.4208 -0.4658 -6.8446
v  -8.6538 -0.4658 -7.7918
v  -7.7919 -0.4658 -8.6537
v  -6.8446 -0.4658 -9.4208
v  -5.8224 -0.4658 -10.0846
v  -4.7364 -0.4658 -10.6380
v  -3.5985 -0.4658 -11.0748
v  -2.4211 -0.4658 -11.3903
v  -1.2172 -0.4658 -11.5810
v  -0.0000 -0.4658 -11.6447
v  1.2172 -0.4658 -11.5810
v  2.4210 -0.4658 -11.3903
v  3.5984 -0.4658 -11.0748
v  4.7363 -0.4658 -10.6380
v  5.8223 -0.4658 -10.0847
v  6.8446 -0.4658 -9.4208
v  7.7918 -0.4658 -8.6538
v  8.6537 -0.4658 -7.7919
v  9.4208 -0.4658 -6.8446
v  10.0846 -0.4658 -5.8224
v  10.6380 -0.4658 -4.7364
v  11.0748 -0.4658 -3.5985
v  11.3903 -0.4658 -2.4211
v  11.5810 -0.4658 -1.2173
# 120 vertices

vn 1.0000 0.0000 -0.0000
vn 0.9945 0.0000 0.1045
vn 0.9945 0.0000 0.1045
vn 1.0000 0.0000 -0.0000
vn 0.9945 0.0000 0.1045
vn 0.9781 0.0000 0.2079
vn 0.9781 0.0000 0.2079
vn 0.9945 0.0000 0.1045
vn 0.9781 0.0000 0.2079
vn 0.9511 0.0000 0.3090
vn 0.9511 0.0000 0.3090
vn 0.9781 0.0000 0.2079
vn 0.9511 0.0000 0.3090
vn 0.9135 0.0000 0.4067
vn 0.9135 0.0000 0.4067
vn 0.9511 0.0000 0.3090
vn 0.9135 0.0000 0.4067
vn 0.8660 0.0000 0.5000
vn 0.8660 0.0000 0.5000
vn 0.9135 0.0000 0.4067
vn 0.8660 0.0000 0.5000
vn 0.8090 0.0000 0.5878
vn 0.8090 0.0000 0.5878
vn 0.8660 0.0000 0.5000
vn 0.8090 0.0000 0.5878
vn 0.7431 0.0000 0.6691
vn 0.7431 0.0000 0.6691
vn 0.8090 0.0000 0.5878
vn 0.7431 0.0000 0.6691
vn 0.6691 0.0000 0.7431
vn 0.6691 0.0000 0.7431
vn 0.7431 0.0000 0.6691
vn 0.6691 0.0000 0.7431
vn 0.5878 0.0000 0.8090
vn 0.5878 0.0000 0.8090
vn 0.6691 0.0000 0.7431
vn 0.5878 0.0000 0.8090
vn 0.5000 0.0000 0.8660
vn 0.5000 0.0000 0.8660
vn 0.5878 0.0000 0.8090
vn 0.5000 0.0000 0.8660
vn 0.4067 0.0000 0.9135
vn 0.4067 0.0000 0.9135
vn 0.5000 0.0000 0.8660
vn 0.4067 0.0000 0.9135
vn 0.3090 0.0000 0.9511
vn 0.3090 0.0000 0.9511
vn 0.4067 0.0000 0.9135
vn 0.3090 0.0000 0.9511
vn 0.2079 0.0000 0.9781
vn 0.2079 0.0000 0.9781
vn 0.3090 0.0000 0.9511
vn 0.2079 0.0000 0.9781
vn 0.1045 0.0000 0.9945
vn 0.1045 0.0000 0.9945
vn 0.2079 0.0000 0.9781
vn 0.1045 0.0000 0.9945
vn 0.0000 0.0000 1.0000
vn 0.0000 0.0000 1.0000
vn 0.1045 0.0000 0.9945
vn 0.0000 0.0000 1.0000
vn -0.1045 0.0000 0.9945
vn -0.1045 0.0000 0.9945
vn 0.0000 0.0000 1.0000
vn -0.1045 0.0000 0.9945
vn -0.2079 0.0000 0.9781
vn -0.2079 0.0000 0.9781
vn -0.1045 0.0000 0.9945
vn -0.2079 0.0000 0.9781
vn -0.3090 0.0000 0.9511
vn -0.3090 0.0000 0.9511
vn -0.2079 0.0000 0.9781
vn -0.3090 0.0000 0.9511
vn -0.4067 0.0000 0.9135
vn -0.4067 0.0000 0.9135
vn -0.3090 0.0000 0.9511
vn -0.4067 0.0000 0.9135
vn -0.5000 0.0000 0.8660
vn -0.5000 0.0000 0.8660
vn -0.4067 0.0000 0.9135
vn -0.5000 0.0000 0.8660
vn -0.5878 0.0000 0.8090
vn -0.5878 0.0000 0.8090
vn -0.5000 0.0000 0.8660
vn -0.5878 0.0000 0.8090
vn -0.6691 0.0000 0.7431
vn -0.6691 0.0000 0.7431
vn -0.5878 0.0000 0.8090
vn -0.6691 0.0000 0.7431
vn -0.7431 0.0000 0.6691
vn -0.7431 0.0000 0.6691
vn -0.6691 0.0000 0.7431
vn -0.7431 0.0000 0.6691
vn -0.8090 0.0000 0.5878
vn -0.8090 0.0000 0.5878
vn -0.7431 0.0000 0.6691
vn -0.8090 0.0000 0.5878
vn -0.8660 0.0000 0.5000
vn -0.8660 0.0000 0.5000
vn -0.8090 0.0000 0.5878
vn -0.8660 0.0000 0.5000
vn -0.9135 0.0000 0.4067
vn -0.9135 0.0000 0.4067
vn -0.8660 0.0000 0.5000
vn -0.9135 0.0000 0.4067
vn -0.9511 0.0000 0.3090
vn -0.9511 0.0000 0.3090
vn -0.9135 0.0000 0.4067
vn -0.9511 0.0000 0.3090
vn -0.9781 0.0000 0.2079
vn -0.9781 0.0000 0.2079
vn -0.9511 0.0000 0.3090
vn -0.9781 0.0000 0.2079
vn -0.9945 0.0000 0.1045
vn -0.9945 0.0000 0.1045
vn -0.9781 0.0000 0.2079
vn -0.9945 0.0000 0.1045
vn -1.0000 0.0000 0.0000
vn -1.0000 0.0000 0.0000
vn -0.9945 0.0000 0.1045
vn -1.0000 0.0000 0.0000
vn -0.9945 0.0000 -0.1045
vn -0.9945 0.0000 -0.1045
vn -1.0000 0.0000 0.0000
vn -0.9945 0.0000 -0.1045
vn -0.9781 0.0000 -0.2079
vn -0.9781 0.0000 -0.2079
vn -0.9945 0.0000 -0.1045
vn -0.9781 0.0000 -0.2079
vn -0.9511 0.0000 -0.3090
vn -0.9511 0.0000 -0.3090
vn -0.9781 0.0000 -0.2079
vn -0.9511 0.0000 -0.3090
vn -0.9135 0.0000 -0.4067
vn -0.9135 0.0000 -0.4067
vn -0.9511 0.0000 -0.3090
vn -0.9135 0.0000 -0.4067
vn -0.8660 0.0000 -0.5000
vn -0.8660 0.0000 -0.5000
vn -0.9135 0.0000 -0.4067
vn -0.8660 0.0000 -0.5000
vn -0.8090 0.0000 -0.5878
vn -0.8090 0.0000 -0.5878
vn -0.8660 0.0000 -0.5000
vn -0.8090 0.0000 -0.5878
vn -0.7431 0.0000 -0.6691
vn -0.7431 0.0000 -0.6691
vn -0.8090 0.0000 -0.5878
vn -0.7431 0.0000 -0.6691
vn -0.6691 0.0000 -0.7431
vn -0.6691 0.0000 -0.7431
vn -0.7431 0.0000 -0.6691
vn -0.6691 0.0000 -0.7431
vn -0.5878 0.0000 -0.8090
vn -0.5878 0.0000 -0.8090
vn -0.6691 0.0000 -0.7431
vn -0.5878 0.0000 -0.8090
vn -0.5000 0.0000 -0.8660
vn -0.5000 0.0000 -0.8660
vn -0.5878 0.0000 -0.8090
vn -0.5000 0.0000 -0.8660
vn -0.4067 0.0000 -0.9135
vn -0.4067 0.0000 -0.9135
vn -0.5000 0.0000 -0.8660
vn -0.4067 0.0000 -0.9135
vn -0.3090 0.0000 -0.9511
vn -0.3090 0.0000 -0.9511
vn -0.4067 0.0000 -0.9135
vn -0.3090 0.0000 -0.9511
vn -0.2079 0.0000 -0.9781
vn -0.2079 0.0000 -0.9781
vn -0.3090 0.0000 -0.9511
vn -0.2079 0.0000 -0.9781
vn -0.1045 0.0000 -0.9945
vn -0.1045 0.0000 -0.9945
vn -0.2079 0.0000 -0.9781
vn -0.1045 0.0000 -0.9945
vn -0.0000 0.0000 -1.0000
vn -0.0000 0.0000 -1.0000
vn -0.1045 0.0000 -0.9945
vn -0.0000 0.0000 -1.0000
vn 0.1045 0.0000 -0.9945
vn 0.1045 0.0000 -0.9945
vn -0.0000 0.0000 -1.0000
vn 0.1045 0.0000 -0.9945
vn 0.2079 0.0000 -0.9781
vn 0.2079 0.0000 -0.9781
vn 0.1045 0.0000 -0.9945
vn 0.2079 0.0000 -0.9781
vn 0.3090 0.0000 -0.9511
vn 0.3090 0.0000 -0.9511
vn 0.2079 0.0000 -0.9781
vn 0.3090 0.0000 -0.9511
vn 0.4067 0.0000 -0.9135
vn 0.4067 0.0000 -0.9135
vn 0.3090 0.0000 -0.9511
vn 0.4067 0.0000 -0.9135
vn 0.5000 0.0000 -0.8660
vn 0.5000 0.0000 -0.8660
vn 0.4067 0.0000 -0.9135
vn 0.5000 0.0000 -0.8660
vn 0.5878 0.0000 -0.8090
vn 0.5878 0.0000 -0.8090
vn 0.5000 0.0000 -0.8660
vn 0.5878 0.0000 -0.8090
vn 0.6691 0.0000 -0.7431
vn 0.6691 0.0000 -0.7431
vn 0.5878 0.0000 -0.8090
vn 0.6691 0.0000 -0.7431
vn 0.7431 0.0000 -0.6691
vn 0.7431 0.0000 -0.6691
vn 0.6691 0.0000 -0.7431
vn 0.7431 0.0000 -0.6691
vn 0.8090 0.0000 -0.5878
vn 0.8090 0.0000 -0.5878
vn 0.7431 0.0000 -0.6691
vn 0.8090 0.0000 -0.5878
vn 0.8660 0.0000 -0.5000
vn 0.8660 0.0000 -0.5000
vn 0.8090 0.0000 -0.5878
vn 0.8660 0.0000 -0.5000
vn 0.9135 0.0000 -0.4067
vn 0.9135 0.0000 -0.4067
vn 0.8660 0.0000 -0.5000
vn 0.9135 0.0000 -0.4067
vn 0.9511 0.0000 -0.3090
vn 0.9511 0.0000 -0.3090
vn 0.9135 0.0000 -0.4067
vn 0.9511 0.0000 -0.3090
vn 0.9781 0.0000 -0.2079
vn 0.9781 0.0000 -0.2079
vn 0.9511 0.0000 -0.3090
vn 0.9781 0.0000 -0.2079
vn 0.9945 0.0000 -0.1045
vn 0.9945 0.0000 -0.1045
vn 0.9781 0.0000 -0.2079
vn 0.9945 0.0000 -0.1045
vn 1.0000 0.0000 -0.0000
vn 1.0000 0.0000 -0.0000
vn 0.9945 0.0000 -0.1045
vn 0.0000 1.0000 -0.0000
vn 0.0000 1.0000 -0.0000
vn 0.0000 1.0000 -0.0000
vn 0.0000 1.0000 -0.0000
vn 0.0000 1.0000 -0.0000
vn 0.0000 1.0000 -0.0000
vn 0.0000 1.0000 -0.0000
vn 0.0000 1.0000 -0.0000
vn 0.0000 1.0000 -0.0000
vn 0.0000 1.0000 -0.0000
vn 0.0000 1.0000 -0.0000
vn 0.0000 1.0000 -0.0000
vn 0.0000 1.0000 -0.0000
vn 0.0000 1.0000 -0.0000
vn 0.0000 1.0000 -0.0000
vn 0.0000 1.0000 -0.0000
vn 0.0000 1.0000 -0.0000
vn 0.0000 1.0000 -0.0000
vn 0.0000 1.0000 -0.0000
vn 0.0000 1.0000 -0.0000
vn 0.0000 1.0000 -0.0000
vn 0.0000 1.0000 -0.0000
vn 0.0000 1.0000 -0.0000
vn 0.0000 1.0000 -0.0000
vn 0.0000 1.0000 -0.0000
vn 0.0000 1.0000 -0.0000
vn 0.0000 1.0000 -0.0000
vn 0.0000 1.0000 -0.0000
vn 0.0000 1.0000 -0.0000
vn 0.0000 1.0000 -0.0000
vn 0.0000 1.0000 -0.0000
vn 0.0000 1.0000 -0.0000
vn 0.0000 1.0000 -0.0000
vn 0.0000 1.0000 -0.0000
vn 0.0000 1.0000 -0.0000
vn 0.0000 1.0000 -0.0000
vn 0.0000 1.0000 -0.0000
vn 0.0000 1.0000 -0.0000
vn 0.0000 1.0000 -0.0000
vn 0.0000 1.0000 -0.0000
vn 0.0000 1.0000 -0.0000
vn 0.0000 1.0000 -0.0000
vn 0.0000 1.0000 -0.0000
vn 0.0000 1.0000 -0.0000
vn 0.0000 1.0000 -0.0000
vn 0.0000 1.0000 -0.0000
vn 0.0000 1.0000 -0.0000
vn 0.0000 1.0000 -0.0000
vn 0.0000 1.0000 -0.0000
vn 0.0000 1.0000 -0.0000
vn 0.0000 1.0000 -0.0000
vn 0.0000 1.0000 -0.0000
vn 0.0000 1.0000 -0.0000
vn 0.0000 1.0000 -0.0000
vn 0.0000 1.0000 -0.0000
vn 0.0000 1.0000 -0.0000
vn 0.0000 1.0000 -0.0000
vn 0.0000 1.0000 -0.0000
vn 0.0000 1.0000 -0.0000
vn 0.0000 1.0000 -0.0000
vn 0.0000 1.0000 -0.0000
vn 0.0000 1.0000 -0.0000
vn 0.0000 1.0000 -0.0000
vn 0.0000 1.0000 -0.0000
vn 0.0000 1.0000 -0.0000
vn 0.0000 1.0000 -0.0000
vn 0.0000 1.0000 -0.0000
vn 0.0000 1.0000 -0.0000
vn 0.0000 1.0000 -0.0000
vn 0.0000 1.0000 -0.0000
vn 0.0000 1.0000 -0.0000
vn 0.0000 1.0000 -0.0000
vn 0.0000 1.0000 -0.0000
vn 0.0000 1.0000 -0.0000
vn 0.0000 1.0000 -0.0000
vn 0.0000 1.0000 -0.0000
vn 0.0000 1.0000 -0.0000
vn 0.0000 1.0000 -0.0000
vn 0.0000 1.0000 -0.0000
vn 0.0000 1.0000 -0.0000
vn 0.0000 1.0000 -0.0000
vn 0.0000 1.0000 -0.0000
vn 0.0000 1.0000 -0.0000
vn 0.0000 1.0000 -0.0000
vn 0.0000 1.0000 -0.0000
vn 0.0000 1.0000 -0.0000
vn 0.0000 1.0000 -0.0000
vn 0.0000 1.0000 -0.0000
vn 0.0000 1.0000 -0.0000
vn 0.0000 1.0000 -0.0000
vn 0.0000 1.0000 -0.0000
vn 0.0000 1.0000 -0.0000
vn 0.0000 1.0000 -0.0000
vn 0.0000 1.0000 -0.0000
vn 0.0000 1.0000 -0.0000
vn 0.0000 1.0000 -0.0000
vn 0.0000 1.0000 -0.0000
vn 0.0000 1.0000 -0.0000
vn 0.0000 1.0000 -0.0000
vn 0.0000 1.0000 -0.0000
vn 0.0000 1.0000 -0.0000
vn 0.0000 1.0000 -0.0000
vn 0.0000 1.0000 -0.0000
vn 0.0000 1.0000 -0.0000
vn 0.0000 1.0000 -0.0000
vn 0.0000 1.0000 -0.0000
vn 0.0000 1.0000 -0.0000
vn 0.0000 1.0000 -0.0000
vn 0.0000 1.0000 -0.0000
vn 0.0000 1.0000 -0.0000
vn 0.0000 1.0000 -0.0000
vn 0.0000 1.0000 -0.0000
vn 0.0000 1.0000 -0.0000
vn 0.0000 1.0000 -0.0000
vn 0.0000 1.0000 -0.0000
vn 0.0000 1.0000 -0.0000
vn 0.0000 1.0000 -0.0000
vn 0.0000 1.0000 -0.0000
vn 0.0000 1.0000 -0.0000
vn 0.0000 1.0000 -0.0000
vn 0.0000 1.0000 -0.0000
vn 0.0000 1.0000 -0.0000
vn 0.0000 1.0000 -0.0000
vn 0.0000 1.0000 -0.0000
vn 0.0000 1.0000 -0.0000
vn 0.0000 1.0000 -0.0000
vn 0.0000 1.0000 -0.0000
vn 0.0000 1.0000 -0.0000
vn 0.0000 1.0000 -0.0000
vn 0.0000 1.0000 -0.0000
vn 0.0000 1.0000 -0.0000
vn 0.0000 1.0000 -0.0000
vn 0.0000 1.0000 -0.0000
vn 0.0000 1.0000 -0.0000
# 374 vertex normals

vt 0.1370 0.0425 0.0000
vt 0.1276 0.0417 0.0000
vt 0.1182 0.0411 0.0000
vt 0.1088 0.0408 0.0000
vt 0.0993 0.0408 0.0000
vt 0.0899 0.0408 0.0000
vt 0.0805 0.0408 0.0000
vt 0.0711 0.0408 0.0000
vt 0.0617 0.0408 0.0000
vt 0.0523 0.0408 0.0000
vt 0.0429 0.0409 0.0000
vt 0.0335 0.0411 0.0000
vt 0.0241 0.0414 0.0000
vt 0.0147 0.0417 0.0000
vt 0.3127 0.0161 0.0000
vt 0.3033 0.0165 0.0000
vt 0.2939 0.0170 0.0000
vt 0.2845 0.0175 0.0000
vt 0.2751 0.0181 0.0000
vt 0.2657 0.0186 0.0000
vt 0.2563 0.0191 0.0000
vt 0.2470 0.0197 0.0000
vt 0.2376 0.0202 0.0000
vt 0.2282 0.0208 0.0000
vt 0.2188 0.0213 0.0000
vt 0.2094 0.0218 0.0000
vt 0.2000 0.0224 0.0000
vt 0.1906 0.0229 0.0000
vt 0.1812 0.0235 0.0000
vt 0.1718 0.0240 0.0000
vt 0.1624 0.0246 0.0000
vt 0.1530 0.0252 0.0000
vt 0.1436 0.0259 0.0000
vt 0.1342 0.0266 0.0000
vt 0.1249 0.0271 0.0000
vt 0.1155 0.0275 0.0000
vt 0.1061 0.0275 0.0000
vt 0.0967 0.0275 0.0000
vt 0.0873 0.0275 0.0000
vt 0.0778 0.0278 0.0000
vt 0.0684 0.0283 0.0000
vt 0.0590 0.0288 0.0000
vt 0.0496 0.0293 0.0000
vt 0.0402 0.0298 0.0000
vt 0.0308 0.0302 0.0000
vt 0.0214 0.0306 0.0000
vt 0.2678 0.0585 1.0000
vt 0.2585 0.0572 0.0000
vt 0.2492 0.0560 0.0000
vt 0.2398 0.0547 0.0000
vt 0.2305 0.0535 0.0000
vt 0.2212 0.0522 0.0000
vt 0.2119 0.0510 0.0000
vt 0.2025 0.0498 0.0000
vt 0.1932 0.0486 0.0000
vt 0.1838 0.0475 0.0000
vt 0.1745 0.0465 0.0000
vt 0.1651 0.0455 0.0000
vt 0.1558 0.0445 0.0000
vt 0.1464 0.0435 0.0000
vt 0.1367 0.0461 0.0000
vt 0.1274 0.0453 0.0000
vt 0.1180 0.0447 0.0000
vt 0.1087 0.0444 0.0000
vt 0.0993 0.0444 0.0000
vt 0.0899 0.0444 0.0000
vt 0.0805 0.0444 0.0000
vt 0.0711 0.0444 0.0000
vt 0.0617 0.0444 0.0000
vt 0.0523 0.0444 0.0000
vt 0.0430 0.0445 0.0000
vt 0.0336 0.0447 0.0000
vt 0.0242 0.0450 0.0000
vt 0.0148 0.0453 0.0000
vt 0.3129 0.0197 0.0000
vt 0.3035 0.0201 0.0000
vt 0.2941 0.0206 0.0000
vt 0.2847 0.0211 0.0000
vt 0.2753 0.0216 0.0000
vt 0.2659 0.0222 0.0000
vt 0.2566 0.0227 0.0000
vt 0.2472 0.0233 0.0000
vt 0.2378 0.0238 0.0000
vt 0.2284 0.0243 0.0000
vt 0.2190 0.0249 0.0000
vt 0.2096 0.0254 0.0000
vt 0.2002 0.0260 0.0000
vt 0.1908 0.0265 0.0000
vt 0.1814 0.0271 0.0000
vt 0.1720 0.0276 0.0000
vt 0.1626 0.0282 0.0000
vt 0.1532 0.0288 0.0000
vt 0.1439 0.0295 0.0000
vt 0.1345 0.0302 0.0000
vt 0.1250 0.0307 0.0000
vt 0.1156 0.0311 0.0000
vt 0.1061 0.0311 0.0000
vt 0.0967 0.0311 0.0000
vt 0.0873 0.0311 0.0000
vt 0.0780 0.0314 0.0000
vt 0.0686 0.0319 0.0000
vt 0.0592 0.0324 0.0000
vt 0.0498 0.0329 0.0000
vt 0.0404 0.0334 0.0000
vt 0.0310 0.0338 0.0000
vt 0.0216 0.0342 0.0000
vt 0.2673 0.0621 0.0000
vt 0.2580 0.0608 0.0000
vt 0.2487 0.0595 0.0000
vt 0.2394 0.0583 0.0000
vt 0.2300 0.0570 0.0000
vt 0.2207 0.0558 0.0000
vt 0.2114 0.0546 0.0000
vt 0.2021 0.0533 0.0000
vt 0.1927 0.0522 0.0000
vt 0.1834 0.0511 0.0000
vt 0.1741 0.0500 0.0000
vt 0.1647 0.0490 0.0000
vt 0.1554 0.0481 0.0000
vt 0.1460 0.0471 0.0000
vt 0.0120 0.0310 1.0000
vt 0.0122 0.0346 0.0000
vt 0.4493 0.9828 0.1250
vt 0.3991 0.9749 0.1250
vt 0.3500 0.9617 0.1250
vt 0.3025 0.9435 0.1250
vt 0.2573 0.9204 0.1250
vt 0.2146 0.8928 0.1250
vt 0.1751 0.8608 0.1250
vt 0.1392 0.8248 0.1250
vt 0.1072 0.7854 0.1250
vt 0.0796 0.7427 0.1250
vt 0.0565 0.6975 0.1250
vt 0.0383 0.6500 0.1250
vt 0.0251 0.6009 0.1250
vt 0.0172 0.5507 0.1250
vt 0.0145 0.5000 -0.1250
vt 0.0172 0.4493 0.1250
vt 0.0251 0.3991 0.1250
vt 0.0383 0.3500 0.1250
vt 0.0565 0.3025 0.1250
vt 0.0796 0.2573 0.1250
vt 0.1072 0.2146 0.1250
vt 0.1392 0.1751 0.1250
vt 0.1751 0.1392 0.1250
vt 0.2146 0.1072 0.1250
vt 0.2573 0.0796 0.1250
vt 0.3025 0.0565 0.1250
vt 0.3500 0.0383 0.1250
vt 0.3991 0.0251 0.1250
vt 0.4493 0.0172 0.1250
vt 0.5000 0.0145 0.1250
vt 0.5507 0.0172 0.1250
vt 0.6009 0.0251 0.1250
vt 0.6500 0.0383 0.1250
vt 0.6975 0.0565 0.1250
vt 0.7427 0.0796 0.1250
vt 0.7854 0.1072 0.1250
vt 0.8249 0.1392 0.1250
vt 0.8608 0.1751 0.1250
vt 0.8928 0.2146 0.1250
vt 0.9204 0.2573 0.1250
vt 0.9435 0.3025 0.1250
vt 0.9617 0.3500 0.1250
vt 0.9749 0.3991 0.1250
vt 0.9828 0.4493 0.1250
vt 0.9855 0.5000 -0.1250
vt 0.9828 0.5507 0.1250
vt 0.9749 0.6009 0.1250
vt 0.9617 0.6500 0.1250
vt 0.9435 0.6975 0.1250
vt 0.9204 0.7427 0.1250
vt 0.8928 0.7854 0.1250
vt 0.8608 0.8249 0.1250
vt 0.8249 0.8608 0.1250
vt 0.7854 0.8928 0.1250
vt 0.7427 0.9204 0.1250
vt 0.6975 0.9435 0.1250
vt 0.6500 0.9617 0.1250
vt 0.6009 0.9749 0.1250
vt 0.5507 0.9828 0.1250
vt 0.5000 0.9855 0.1250
vt 0.3221 0.0157 0.0000
vt 0.3223 0.0193 0.0000
# 184 texture coords

g Cylinder006
s 1
f 1/1/1 2/2/2 62/62/3 61/61/4 
f 2/2/5 3/3/6 63/63/7 62/62/8 
f 3/3/9 4/4/10 64/64/11 63/63/12 
f 4/4/13 5/5/14 65/65/15 64/64/16 
f 5/5/17 6/6/18 66/66/19 65/65/20 
f 6/6/21 7/7/22 67/67/23 66/66/24 
f 7/7/25 8/8/26 68/68/27 67/67/28 
f 8/8/29 9/9/30 69/69/31 68/68/32 
f 9/9/33 10/10/34 70/70/35 69/69/36 
f 10/10/37 11/11/38 71/71/39 70/70/40 
f 11/11/41 12/12/42 72/72/43 71/71/44 
f 12/12/45 13/13/46 73/73/47 72/72/48 
f 13/13/49 14/14/50 74/74/51 73/73/52 
f 14/183/53 15/15/54 75/75/55 74/184/56 
f 15/15/57 16/16/58 76/76/59 75/75/60 
f 16/16/61 17/17/62 77/77/63 76/76/64 
f 17/17/65 18/18/66 78/78/67 77/77/68 
f 18/18/69 19/19/70 79/79/71 78/78/72 
f 19/19/73 20/20/74 80/80/75 79/79/76 
f 20/20/77 21/21/78 81/81/79 80/80/80 
f 21/21/81 22/22/82 82/82/83 81/81/84 
f 22/22/85 23/23/86 83/83/87 82/82/88 
f 23/23/89 24/24/90 84/84/91 83/83/92 
f 24/24/93 25/25/94 85/85/95 84/84/96 
f 25/25/97 26/26/98 86/86/99 85/85/100 
f 26/26/101 27/27/102 87/87/103 86/86/104 
f 27/27/105 28/28/106 88/88/107 87/87/108 
f 28/28/109 29/29/110 89/89/111 88/88/112 
f 29/29/113 30/30/114 90/90/115 89/89/116 
f 30/30/117 31/31/118 91/91/119 90/90/120 
f 31/31/121 32/32/122 92/92/123 91/91/124 
f 32/32/125 33/33/126 93/93/127 92/92/128 
f 33/33/129 34/34/130 94/94/131 93/93/132 
f 34/34/133 35/35/134 95/95/135 94/94/136 
f 35/35/137 36/36/138 96/96/139 95/95/140 
f 36/36/141 37/37/142 97/97/143 96/96/144 
f 37/37/145 38/38/146 98/98/147 97/97/148 
f 38/38/149 39/39/150 99/99/151 98/98/152 
f 39/39/153 40/40/154 100/100/155 99/99/156 
f 40/40/157 41/41/158 101/101/159 100/100/160 
f 41/41/161 42/42/162 102/102/163 101/101/164 
f 42/42/165 43/43/166 103/103/167 102/102/168 
f 43/43/169 44/44/170 104/104/171 103/103/172 
f 44/44/173 45/45/174 105/105/175 104/104/176 
f 45/45/177 46/46/178 106/106/179 105/105/180 
f 46/46/181 47/121/182 107/122/183 106/106/184 
f 47/47/185 48/48/186 108/108/187 107/107/188 
f 48/48/189 49/49/190 109/109/191 108/108/192 
f 49/49/193 50/50/194 110/110/195 109/109/196 
f 50/50/197 51/51/198 111/111/199 110/110/200 
f 51/51/201 52/52/202 112/112/203 111/111/204 
f 52/52/205 53/53/206 113/113/207 112/112/208 
f 53/53/209 54/54/210 114/114/211 113/113/212 
f 54/54/213 55/55/214 115/115/215 114/114/216 
f 55/55/217 56/56/218 116/116/219 115/115/220 
f 56/56/221 57/57/222 117/117/223 116/116/224 
f 57/57/225 58/58/226 118/118/227 117/117/228 
f 58/58/229 59/59/230 119/119/231 118/118/232 
f 59/59/233 60/60/234 120/120/235 119/119/236 
f 60/60/237 1/1/238 61/61/239 120/120/240 
s 2
f 59/124/241 58/125/242 57/126/243 1/182/244 
f 57/126/245 56/127/246 55/128/247 53/130/248 
f 55/128/249 54/129/250 53/130/251 
f 53/130/252 52/131/253 51/132/254 49/134/255 
f 51/132/256 50/133/257 49/134/258 
f 49/134/259 48/135/260 47/136/261 45/138/262 
f 47/136/263 46/137/264 45/138/265 
f 53/130/266 49/134/267 45/138/268 37/146/269 
f 45/138/270 44/139/271 43/140/272 41/142/273 
f 43/140/274 42/141/275 41/142/276 
f 41/142/277 40/143/278 39/144/279 37/146/280 
f 39/144/281 38/145/282 37/146/283 
f 45/138/284 41/142/285 37/146/286 
f 37/146/287 36/147/288 35/148/289 33/150/290 
f 35/148/291 34/149/292 33/150/293 
f 33/150/294 32/151/295 31/152/296 29/154/297 
f 31/152/298 30/153/299 29/154/300 
f 37/146/301 33/150/302 29/154/303 21/162/304 
f 29/154/305 28/155/306 27/156/307 25/158/308 
f 27/156/309 26/157/310 25/158/311 
f 25/158/312 24/159/313 23/160/314 21/162/315 
f 23/160/316 22/161/317 21/162/318 
f 29/154/319 25/158/320 21/162/321 
f 21/162/322 20/163/323 19/164/324 17/166/325 
f 19/164/326 18/165/327 17/166/328 
f 17/166/329 16/167/330 15/168/331 13/170/332 
f 15/168/333 14/169/334 13/170/335 
f 21/162/336 17/166/337 13/170/338 5/178/339 
f 13/170/340 12/171/341 11/172/342 9/174/343 
f 11/172/344 10/173/345 9/174/346 
f 9/174/347 8/175/348 7/176/349 5/178/350 
f 7/176/351 6/177/352 5/178/353 
f 13/170/354 9/174/355 5/178/356 
f 37/146/357 21/162/358 5/178/359 53/130/360 
f 5/178/361 4/179/362 3/180/363 1/182/364 
f 3/180/365 2/181/366 1/182/367 
f 53/130/368 5/178/369 1/182/370 57/126/371 
f 60/123/372 59/124/373 1/182/374 
# 80 polygons - 18 triangles

