# 3ds Max Wavefront OBJ Exporter v0.97b - (c)2007 guruware
# File Created: 22.03.2017 11:45:33

#
# object bloc_brillant_lp004
#

v  0.9088 1.0958 0.2253
v  0.4945 1.0958 0.1890
v  0.5307 1.0958 -0.2253
v  0.9451 1.0958 -0.1890
v  0.9088 1.5117 0.2253
v  0.9451 1.5117 -0.1890
v  0.5307 1.5117 -0.2253
v  0.4945 1.5117 0.1890
v  0.9396 1.3038 -0.1263
v  0.9269 1.4488 0.0181
v  0.9269 1.1588 0.0181
v  0.9143 1.3038 0.1626
v  0.7903 1.3038 0.0062
# 13 vertices

vn 0.0000 -1.0000 -0.0000
vn 0.0000 -1.0000 -0.0000
vn 0.0000 -1.0000 -0.0000
vn 0.0000 -1.0000 -0.0000
vn 0.0000 1.0000 -0.0000
vn 0.0000 1.0000 -0.0000
vn 0.0000 1.0000 -0.0000
vn 0.0000 1.0000 -0.0000
vn 0.0872 0.0000 -0.9962
vn 0.0872 0.0000 -0.9962
vn 0.0872 0.0000 -0.9962
vn 0.0872 0.0000 -0.9962
vn -0.9962 0.0000 -0.0872
vn -0.9962 0.0000 -0.0872
vn -0.9962 0.0000 -0.0872
vn -0.9962 0.0000 -0.0872
vn -0.0872 0.0000 0.9962
vn -0.0872 0.0000 0.9962
vn -0.0872 0.0000 0.9962
vn -0.0872 0.0000 0.9962
vn 0.6458 0.5664 -0.5120
vn 0.6458 0.5664 -0.5120
vn 0.6458 0.5664 -0.5120
vn 0.5471 0.5664 0.6164
vn 0.5471 0.5664 0.6164
vn 0.5471 0.5664 0.6164
vn 0.5471 -0.5664 0.6164
vn 0.5471 -0.5664 0.6164
vn 0.5471 -0.5664 0.6164
vn 0.6458 -0.5664 -0.5120
vn 0.6458 -0.5664 -0.5120
vn 0.6458 -0.5664 -0.5120
vn 0.9962 0.0000 0.0872
vn 0.9962 0.0000 0.0872
vn 0.9962 0.0000 0.0872
vn 0.9962 0.0000 0.0872
vn 0.9962 0.0000 0.0872
vn 0.9962 0.0000 0.0872
vn 0.9962 0.0000 0.0872
vn 0.9962 0.0000 0.0872
vn 0.9962 0.0000 0.0872
vn 0.9962 0.0000 0.0872
vn 0.9962 0.0000 0.0872
vn 0.9962 0.0000 0.0872
vn 0.9962 0.0000 0.0872
vn 0.9962 0.0000 0.0872
vn 0.9962 0.0000 0.0872
vn 0.9962 0.0000 0.0872
vn 0.9962 0.0000 0.0872
vn 0.9962 0.0000 0.0872
vn 0.9962 0.0000 0.0872
vn 0.9962 0.0000 0.0872
vn 0.9962 0.0000 0.0872
vn 0.9962 0.0000 0.0872
# 54 vertex normals

vt 0.5791 0.5187 0.0000
vt 0.7916 0.7311 0.0000
vt 0.5791 0.7311 0.0000
vt 0.2760 0.5187 0.0000
vt 0.0635 0.7311 0.0000
vt 0.0635 0.5187 0.0000
vt 0.3316 0.4774 0.0000
vt 0.3316 0.9745 0.0000
vt 0.2760 0.7311 0.0000
vt 0.5441 0.0175 0.0000
vt 0.3316 0.2299 0.0000
vt 0.3316 0.0175 0.0000
vt 0.5441 0.2299 0.0000
vt 0.3316 0.7620 0.0000
vt 0.5441 0.7620 0.0000
vt 0.3316 0.7311 0.0000
vt 0.3638 0.6249 0.0000
vt 0.4378 0.6990 0.0000
vt 0.9527 0.9628 0.0000
vt 0.8045 0.9628 0.0000
vt 0.8786 0.8391 0.0000
vt 0.9527 0.9628 0.0000
vt 0.8045 0.9628 0.0000
vt 0.8786 0.8391 0.0000
vt 0.8045 0.9627 0.0000
vt 0.8786 0.8389 0.0000
vt 0.9527 0.9627 0.0000
vt 0.9527 0.9628 0.0000
vt 0.8045 0.9628 0.0000
vt 0.8786 0.8390 0.0000
vt 0.7916 0.5187 0.0000
vt 0.5441 0.4774 0.0000
vt 0.5441 0.9745 0.0000
vt 0.5441 0.7311 0.0000
vt 0.3316 0.5187 0.0000
vt 0.5441 0.5187 0.0000
vt 0.5119 0.6249 0.0000
vt 0.3316 0.2650 0.0000
vt 0.4378 0.5508 0.0000
vt 0.5441 0.2650 0.0000
# 40 texture coords

g bloc_brillant_lp004
s 1
f 1/1/1 2/31/2 3/2/3 4/3/4 
f 5/4/5 6/9/6 7/5/7 8/6/8 
s 2
f 4/15/9 3/33/10 7/8/11 6/14/12 
s 4
f 3/10/13 2/13/14 8/11/15 7/12/16 
s 2
f 2/40/17 1/32/18 5/7/19 8/38/20 
s 1
f 12/19/21 11/20/22 13/21/23 
s 2
f 11/22/24 9/23/25 13/24/26 
s 4
f 10/25/27 13/26/28 9/27/29 
s 8
f 10/28/30 12/29/31 13/30/32 
s 16
f 4/34/33 11/37/34 1/36/35 
f 6/16/36 10/17/37 9/18/38 
f 4/34/39 9/18/40 11/37/41 
f 12/39/42 5/35/43 1/36/44 
f 11/37/45 12/39/46 1/36/47 
f 4/34/48 6/16/49 9/18/50 
f 6/16/51 5/35/52 12/39/53 10/17/54 
# 6 polygons - 10 triangles

