# 3ds Max Wavefront OBJ Exporter v0.97b - (c)2007 guruware
# File Created: 22.03.2017 00:44:33

#
# object bloc_enigme1_lp
#

v  -1.3073 1.6011 1.2419
v  1.3054 1.6011 1.2419
v  -1.3073 1.6011 -1.3708
v  1.3054 1.6011 -1.3708
v  1.3054 1.1657 1.2419
v  -1.3073 1.1657 1.2419
v  1.3054 1.1657 -1.3708
v  -1.3073 1.1657 -1.3708
v  1.3054 1.6011 -0.9354
v  -1.3073 1.6011 -0.9354
v  1.3054 1.1657 -0.9354
v  -1.3073 1.1657 -0.9354
v  1.3054 1.6011 0.8064
v  -1.3073 1.1657 0.8064
v  -1.3073 1.6011 0.8064
v  1.3054 1.1657 0.8064
v  -0.8719 1.6011 1.2419
v  -0.8719 1.6011 -1.3708
v  -0.8719 1.1657 1.2419
v  -0.8719 1.1657 -1.3708
v  -0.8719 1.6011 -0.9354
v  -0.8719 1.6011 0.8064
v  0.8700 1.6011 -1.3708
v  0.8700 1.1657 1.2419
v  0.8700 1.6011 -0.9354
v  0.8700 1.6011 0.8064
v  0.8700 1.6011 1.2419
v  0.8700 1.1657 -1.3708
v  -0.8719 1.1657 0.8064
v  0.8700 1.1657 0.8064
v  -0.8719 1.1657 -0.9354
v  0.8700 1.1657 -0.9354
v  -1.3073 -1.0116 1.2419
v  -0.8719 -1.0116 1.2419
v  -0.8719 -1.0116 0.8064
v  -1.3073 -1.0116 0.8064
v  1.3054 -0.5761 1.2419
v  1.3054 -1.0116 1.2419
v  0.8700 -1.0116 1.2419
v  0.8700 -0.5761 1.2419
v  1.3054 -0.5761 -1.3708
v  1.3054 -1.0116 -1.3708
v  1.3054 -1.0116 -0.9354
v  1.3054 -0.5761 -0.9354
v  -1.3073 -0.5761 -1.3708
v  -1.3073 -1.0116 -1.3708
v  -0.8719 -1.0116 -1.3708
v  -0.8719 -0.5761 -1.3708
v  -1.3073 -0.5761 1.2419
v  -1.3073 -0.5761 0.8064
v  0.8700 -1.0116 -1.3708
v  0.8700 -1.0116 -0.9354
v  1.3054 -1.0116 0.8064
v  1.3054 -0.5761 0.8064
v  -1.3073 -1.0116 -0.9354
v  -1.3073 -0.5761 -0.9354
v  0.8700 -1.0116 0.8064
v  -0.8719 -0.5761 1.2419
v  0.8700 -0.5761 -1.3708
v  -0.8719 -1.0116 -0.9354
v  -0.8719 -0.5761 0.8064
v  0.8700 -0.5761 0.8064
v  0.8700 -0.5761 -0.9354
v  -0.8719 -0.5761 -0.9354
# 64 vertices

vn 0.0000 1.0000 -0.0000
vn 0.0000 1.0000 -0.0000
vn 0.0000 1.0000 -0.0000
vn 0.0000 1.0000 -0.0000
vn 0.0000 0.0000 1.0000
vn 0.0000 0.0000 1.0000
vn 0.0000 -0.0000 1.0000
vn 0.0000 0.0000 1.0000
vn 1.0000 0.0000 -0.0000
vn 1.0000 0.0000 -0.0000
vn 1.0000 0.0000 -0.0000
vn 1.0000 0.0000 -0.0000
vn 0.0000 0.0000 -1.0000
vn 0.0000 0.0000 -1.0000
vn 0.0000 0.0000 -1.0000
vn 0.0000 0.0000 -1.0000
vn -1.0000 0.0000 -0.0000
vn -1.0000 0.0000 -0.0000
vn -1.0000 0.0000 -0.0000
vn -1.0000 0.0000 -0.0000
vn 0.0000 1.0000 -0.0000
vn 0.0000 1.0000 -0.0000
vn 0.0000 1.0000 -0.0000
vn 0.0000 1.0000 -0.0000
vn 1.0000 0.0000 -0.0000
vn 1.0000 0.0000 -0.0000
vn 1.0000 0.0000 -0.0000
vn 1.0000 0.0000 -0.0000
vn -1.0000 0.0000 -0.0000
vn -1.0000 0.0000 -0.0000
vn -1.0000 0.0000 -0.0000
vn -1.0000 0.0000 -0.0000
vn -1.0000 0.0000 -0.0000
vn -1.0000 0.0000 -0.0000
vn -1.0000 0.0000 -0.0000
vn -1.0000 0.0000 -0.0000
vn 0.0000 1.0000 -0.0000
vn 0.0000 1.0000 -0.0000
vn 0.0000 1.0000 -0.0000
vn 0.0000 1.0000 -0.0000
vn -1.0000 0.0000 -0.0000
vn -1.0000 0.0000 -0.0000
vn -1.0000 0.0000 -0.0000
vn -1.0000 0.0000 -0.0000
vn 1.0000 0.0000 -0.0000
vn 1.0000 0.0000 -0.0000
vn 1.0000 0.0000 -0.0000
vn 1.0000 0.0000 -0.0000
vn 1.0000 0.0000 -0.0000
vn 1.0000 0.0000 -0.0000
vn 1.0000 0.0000 -0.0000
vn 1.0000 0.0000 -0.0000
vn 0.0000 1.0000 -0.0000
vn 0.0000 1.0000 -0.0000
vn 0.0000 1.0000 -0.0000
vn 0.0000 1.0000 -0.0000
vn -0.0000 -0.0000 1.0000
vn 0.0000 0.0000 1.0000
vn -0.0000 -0.0000 1.0000
vn -0.0000 -0.0000 1.0000
vn 0.0000 0.0000 -1.0000
vn 0.0000 0.0000 -1.0000
vn 0.0000 0.0000 -1.0000
vn 0.0000 0.0000 -1.0000
vn 0.0000 1.0000 -0.0000
vn 0.0000 1.0000 -0.0000
vn 0.0000 1.0000 -0.0000
vn 0.0000 1.0000 -0.0000
vn 0.0000 1.0000 -0.0000
vn 0.0000 1.0000 -0.0000
vn 0.0000 1.0000 -0.0000
vn 0.0000 1.0000 -0.0000
vn -0.0000 -0.0000 1.0000
vn -0.0000 -0.0000 1.0000
vn 0.0000 -0.0000 1.0000
vn 0.0000 0.0000 1.0000
vn 0.0000 1.0000 -0.0000
vn 0.0000 1.0000 -0.0000
vn 0.0000 1.0000 -0.0000
vn 0.0000 1.0000 -0.0000
vn 0.0000 1.0000 -0.0000
vn 0.0000 1.0000 -0.0000
vn 0.0000 1.0000 -0.0000
vn 0.0000 1.0000 -0.0000
vn 0.0000 0.0000 -1.0000
vn 0.0000 0.0000 -1.0000
vn 0.0000 0.0000 -1.0000
vn 0.0000 0.0000 -1.0000
vn 0.0000 0.0000 -1.0000
vn 0.0000 0.0000 -1.0000
vn 0.0000 0.0000 -1.0000
vn 0.0000 0.0000 -1.0000
vn 0.0000 -1.0000 -0.0000
vn 0.0000 -1.0000 -0.0000
vn 0.0000 -1.0000 -0.0000
vn 0.0000 -1.0000 -0.0000
vn 0.0000 0.0000 -1.0000
vn 0.0000 0.0000 -1.0000
vn 0.0000 0.0000 -1.0000
vn 0.0000 0.0000 -1.0000
vn 0.0000 -1.0000 -0.0000
vn 0.0000 -1.0000 -0.0000
vn 0.0000 -1.0000 -0.0000
vn 0.0000 -1.0000 -0.0000
vn -1.0000 0.0000 -0.0000
vn -1.0000 0.0000 -0.0000
vn -1.0000 0.0000 -0.0000
vn -1.0000 0.0000 -0.0000
vn 0.0000 -1.0000 -0.0000
vn 0.0000 -1.0000 -0.0000
vn 0.0000 -1.0000 -0.0000
vn 0.0000 -1.0000 -0.0000
vn 0.0000 0.0000 1.0000
vn 0.0000 0.0000 1.0000
vn 0.0000 0.0000 1.0000
vn 0.0000 0.0000 1.0000
vn 0.0000 -1.0000 -0.0000
vn 0.0000 -1.0000 -0.0000
vn 0.0000 -1.0000 -0.0000
vn 0.0000 -1.0000 -0.0000
vn 1.0000 0.0000 -0.0000
vn 1.0000 0.0000 -0.0000
vn 1.0000 0.0000 -0.0000
vn 1.0000 0.0000 -0.0000
vn 1.0000 0.0000 -0.0000
vn 1.0000 0.0000 -0.0000
vn 1.0000 0.0000 -0.0000
vn 1.0000 0.0000 -0.0000
vn 0.0000 0.0000 -1.0000
vn 0.0000 0.0000 -1.0000
vn 0.0000 0.0000 -1.0000
vn 0.0000 0.0000 -1.0000
vn 0.0000 -1.0000 0.0000
vn 0.0000 -1.0000 -0.0000
vn 0.0000 -1.0000 0.0000
vn -0.0000 -1.0000 0.0000
vn 0.0000 0.0000 1.0000
vn 0.0000 0.0000 1.0000
vn 0.0000 0.0000 1.0000
vn 0.0000 0.0000 1.0000
vn 1.0000 0.0000 -0.0000
vn 1.0000 0.0000 -0.0000
vn 1.0000 0.0000 -0.0000
vn 1.0000 0.0000 -0.0000
vn 0.0000 0.0000 -1.0000
vn 0.0000 0.0000 -1.0000
vn 0.0000 0.0000 -1.0000
vn 0.0000 0.0000 -1.0000
vn -1.0000 0.0000 -0.0000
vn -1.0000 0.0000 -0.0000
vn -1.0000 0.0000 -0.0000
vn -1.0000 0.0000 -0.0000
vn 0.0000 -1.0000 -0.0000
vn 0.0000 -1.0000 -0.0000
vn 0.0000 -1.0000 -0.0000
vn 0.0000 -1.0000 -0.0000
vn 1.0000 0.0000 -0.0000
vn 1.0000 0.0000 -0.0000
vn 1.0000 0.0000 -0.0000
vn 1.0000 0.0000 -0.0000
vn -1.0000 0.0000 -0.0000
vn -1.0000 0.0000 -0.0000
vn -1.0000 0.0000 -0.0000
vn -1.0000 0.0000 -0.0000
vn 0.0000 -1.0000 -0.0000
vn 0.0000 -1.0000 -0.0000
vn 0.0000 -1.0000 -0.0000
vn 0.0000 -1.0000 -0.0000
vn -1.0000 0.0000 -0.0000
vn -1.0000 0.0000 -0.0000
vn -1.0000 0.0000 -0.0000
vn -1.0000 0.0000 -0.0000
vn 1.0000 0.0000 -0.0000
vn 1.0000 0.0000 -0.0000
vn 1.0000 0.0000 -0.0000
vn 1.0000 0.0000 -0.0000
vn -0.0000 -1.0000 0.0000
vn 0.0000 -1.0000 0.0000
vn -0.0000 -1.0000 0.0000
vn 0.0000 -1.0000 -0.0000
vn -0.0000 0.0000 1.0000
vn -0.0000 0.0000 1.0000
vn -0.0000 0.0000 1.0000
vn 0.0000 0.0000 1.0000
vn 0.0000 0.0000 -1.0000
vn 0.0000 0.0000 -1.0000
vn 0.0000 0.0000 -1.0000
vn 0.0000 0.0000 -1.0000
vn -0.0000 -0.0000 1.0000
vn 0.0000 0.0000 1.0000
vn 0.0000 0.0000 1.0000
vn -0.0000 0.0000 1.0000
vn 0.0000 -1.0000 -0.0000
vn 0.0000 -1.0000 -0.0000
vn 0.0000 -1.0000 -0.0000
vn 0.0000 -1.0000 -0.0000
vn 0.0000 -1.0000 -0.0000
vn 0.0000 -1.0000 -0.0000
vn -0.0000 -1.0000 0.0000
vn 0.0000 -1.0000 0.0000
vn -0.0000 0.0000 1.0000
vn 0.0000 0.0000 1.0000
vn 0.0000 0.0000 1.0000
vn -0.0000 0.0000 1.0000
vn 0.0000 -1.0000 -0.0000
vn 0.0000 -1.0000 -0.0000
vn 0.0000 -1.0000 -0.0000
vn 0.0000 -1.0000 -0.0000
vn 0.0000 -1.0000 -0.0000
vn -0.0000 -1.0000 0.0000
vn 0.0000 -1.0000 -0.0000
vn 0.0000 -1.0000 -0.0000
vn 0.0000 0.0000 -1.0000
vn 0.0000 0.0000 -1.0000
vn 0.0000 0.0000 -1.0000
vn 0.0000 0.0000 -1.0000
vn 0.0000 1.0000 -0.0000
vn 0.0000 1.0000 -0.0000
vn 0.0000 1.0000 -0.0000
vn 0.0000 1.0000 -0.0000
vn 0.0000 0.0000 -1.0000
vn 0.0000 0.0000 -1.0000
vn 0.0000 0.0000 -1.0000
vn 0.0000 0.0000 -1.0000
vn 0.0000 1.0000 -0.0000
vn 0.0000 1.0000 -0.0000
vn 0.0000 1.0000 -0.0000
vn 0.0000 1.0000 -0.0000
vn -1.0000 0.0000 -0.0000
vn -1.0000 0.0000 -0.0000
vn -1.0000 0.0000 -0.0000
vn -1.0000 0.0000 -0.0000
vn 0.0000 1.0000 -0.0000
vn 0.0000 1.0000 -0.0000
vn 0.0000 1.0000 -0.0000
vn 0.0000 1.0000 -0.0000
vn 0.0000 0.0000 1.0000
vn 0.0000 0.0000 1.0000
vn 0.0000 0.0000 1.0000
vn 0.0000 0.0000 1.0000
vn 0.0000 1.0000 -0.0000
vn 0.0000 1.0000 -0.0000
vn 0.0000 1.0000 -0.0000
vn 0.0000 1.0000 -0.0000
vn 1.0000 0.0000 -0.0000
vn 1.0000 0.0000 -0.0000
vn 1.0000 0.0000 -0.0000
vn 1.0000 0.0000 -0.0000
vn 0.0000 0.0000 1.0000
vn 0.0000 -0.0000 1.0000
vn 0.0000 0.0000 1.0000
vn 0.0000 0.0000 1.0000
vn -1.0000 0.0000 -0.0000
vn -1.0000 0.0000 -0.0000
vn -1.0000 0.0000 -0.0000
vn -1.0000 0.0000 -0.0000
vn 0.0000 0.0000 -1.0000
vn 0.0000 0.0000 -1.0000
vn 0.0000 0.0000 -1.0000
vn 0.0000 0.0000 -1.0000
vn -1.0000 0.0000 -0.0000
vn -1.0000 0.0000 -0.0000
vn -1.0000 0.0000 -0.0000
vn -1.0000 0.0000 -0.0000
vn 0.0000 0.0000 -1.0000
vn 0.0000 0.0000 -1.0000
vn 0.0000 0.0000 -1.0000
vn 0.0000 0.0000 -1.0000
vn 1.0000 0.0000 -0.0000
vn 1.0000 0.0000 -0.0000
vn 1.0000 0.0000 -0.0000
vn 1.0000 0.0000 -0.0000
vn 1.0000 0.0000 -0.0000
vn 1.0000 0.0000 -0.0000
vn 1.0000 0.0000 -0.0000
vn 1.0000 0.0000 -0.0000
vn 0.0000 0.0000 1.0000
vn 0.0000 0.0000 1.0000
vn 0.0000 0.0000 1.0000
vn 0.0000 0.0000 1.0000
vn -1.0000 0.0000 -0.0000
vn -1.0000 0.0000 -0.0000
vn -1.0000 0.0000 -0.0000
vn -1.0000 0.0000 -0.0000
vn 0.0000 0.0000 1.0000
vn 0.0000 0.0000 1.0000
vn 0.0000 0.0000 1.0000
vn 0.0000 0.0000 1.0000
# 288 vertex normals

vt 0.0284 0.0284 0.0000
vt 0.0732 0.0284 0.0000
vt 0.0732 0.0732 0.0000
vt 0.0284 0.0732 0.0000
vt 0.5817 0.2523 0.0000
vt 0.5817 0.2971 0.0000
vt 0.2971 0.5369 0.0000
vt 0.2971 0.5817 0.0000
vt 0.5975 0.0732 0.0000
vt 0.5975 0.0284 0.0000
vt 0.5369 0.2971 0.0000
vt 0.5369 0.2524 0.0000
vt 0.3577 0.2971 0.0000
vt 0.6423 0.0284 0.0000
vt 0.3130 0.2971 0.0000
vt 0.6423 0.0732 0.0000
vt 0.2524 0.5817 0.0000
vt 0.8214 0.0284 0.0000
vt 0.8214 0.0732 0.0000
vt 0.5369 0.3130 0.0000
vt 0.3130 0.2524 0.0000
vt 0.8662 0.0284 0.0000
vt 0.2971 0.2524 0.0000
vt 0.5817 0.3130 0.0000
vt 0.2971 0.2971 0.0000
vt 0.5817 0.3577 0.0000
vt 0.7924 0.6870 0.0000
vt 0.6133 0.6870 0.0000
vt 0.2524 0.2971 0.0000
vt 0.8662 0.0732 0.0000
vt 0.6133 0.6423 0.0000
vt 0.3577 0.2524 0.0000
vt 0.5369 0.3577 0.0000
vt 0.5817 0.5369 0.0000
vt 0.2524 0.2524 0.0000
vt 0.4183 0.6423 0.0000
vt 0.7924 0.6423 0.0000
vt 0.2524 0.5369 0.0000
vt 0.2971 0.0732 0.0000
vt 0.7476 0.4921 0.0000
vt 0.2524 0.0732 0.0000
vt 0.8662 0.2524 0.0000
vt 0.7029 0.4921 0.0000
vt 0.7029 0.3130 0.0000
vt 0.2524 0.0284 0.0000
vt 0.0732 0.2971 0.0000
vt 0.0284 0.2971 0.0000
vt 0.5975 0.6870 0.0000
vt 0.8530 0.3130 0.0000
vt 0.0284 0.2523 0.0000
vt 0.0732 0.2523 0.0000
vt 0.2971 0.0284 0.0000
vt 0.4183 0.6870 0.0000
vt 0.4183 0.5975 0.0000
vt 0.5975 0.5975 0.0000
vt 0.8978 0.3130 0.0000
vt 0.8978 0.4921 0.0000
vt 0.0284 0.8662 0.0000
vt 0.0284 0.8214 0.0000
vt 0.0732 0.8214 0.0000
vt 0.0732 0.8662 0.0000
vt 0.0732 0.5817 0.0000
vt 0.0732 0.5369 0.0000
vt 0.5817 0.5817 0.0000
vt 0.0284 0.5817 0.0000
vt 0.0284 0.5369 0.0000
vt 0.0284 0.3577 0.0000
vt 0.0732 0.3577 0.0000
vt 0.8214 0.2524 0.0000
vt 0.5816 0.0732 0.0000
vt 0.5369 0.0732 0.0000
vt 0.8530 0.4921 0.0000
vt 0.8082 0.4921 0.0000
vt 0.2524 0.3577 0.0000
vt 0.2971 0.6423 0.0000
vt 0.2524 0.6423 0.0000
vt 0.2524 0.5975 0.0000
vt 0.2971 0.5975 0.0000
vt 0.5369 0.0284 0.0000
vt 0.5816 0.0284 0.0000
vt 0.3577 0.0284 0.0000
vt 0.7029 0.7029 0.0000
vt 0.2971 0.3577 0.0000
vt 0.2524 0.3130 0.0000
vt 0.2971 0.3130 0.0000
vt 0.7029 0.7476 0.0000
vt 0.8082 0.3130 0.0000
vt 0.6133 0.5975 0.0000
vt 0.7924 0.5975 0.0000
vt 0.5237 0.7476 0.0000
vt 0.5369 0.5817 0.0000
vt 0.5369 0.5369 0.0000
vt 0.3577 0.0732 0.0000
vt 0.5237 0.7029 0.0000
vt 0.2971 0.8214 0.0000
vt 0.2524 0.8214 0.0000
vt 0.2524 0.8662 0.0000
vt 0.0732 0.5975 0.0000
vt 0.0732 0.3130 0.0000
vt 0.4025 0.9715 0.0000
vt 0.3577 0.5816 0.0000
vt 0.3577 0.5369 0.0000
vt 0.3577 0.9715 0.0000
vt 0.0284 0.3130 0.0000
vt 0.0732 0.6423 0.0000
vt 0.0284 0.6423 0.0000
vt 0.0284 0.9268 0.0000
vt 0.0284 0.8820 0.0000
vt 0.2076 0.8820 0.0000
vt 0.2076 0.9268 0.0000
vt 0.0284 0.5975 0.0000
vt 0.3130 0.0732 0.0000
vt 0.3130 0.0284 0.0000
vt 0.5237 0.8530 0.0000
vt 0.4025 0.7924 0.0000
vt 0.6423 0.2524 0.0000
vt 0.5237 0.8978 0.0000
vt 0.3130 0.5975 0.0000
vt 0.3130 0.7766 0.0000
vt 0.2971 0.8662 0.0000
vt 0.3577 0.3130 0.0000
vt 0.3577 0.3577 0.0000
vt 0.3130 0.3577 0.0000
vt 0.3130 0.3130 0.0000
vt 0.5975 0.2524 0.0000
vt 0.6423 0.2971 0.0000
vt 0.9716 0.0284 0.0000
vt 0.7476 0.3130 0.0000
vt 0.7029 0.8978 0.0000
vt 0.5975 0.2971 0.0000
vt 0.8214 0.2971 0.0000
vt 0.0284 0.9716 0.0000
vt 0.2076 0.9716 0.0000
vt 0.7924 0.3130 0.0000
vt 0.7924 0.4921 0.0000
vt 0.3130 0.5369 0.0000
vt 0.3130 0.5816 0.0000
vt 0.5237 0.8082 0.0000
vt 0.9716 0.2076 0.0000
vt 0.7029 0.7924 0.0000
vt 0.3130 0.9715 0.0000
vt 0.3130 0.7924 0.0000
vt 0.3577 0.7924 0.0000
vt 0.5079 0.7029 0.0000
vt 0.5079 0.8820 0.0000
vt 0.5975 0.3130 0.0000
vt 0.5975 0.4921 0.0000
vt 0.8662 0.2971 0.0000
vt 0.5237 0.7924 0.0000
vt 0.4183 0.7029 0.0000
vt 0.4183 0.8820 0.0000
vt 0.4025 0.5975 0.0000
vt 0.4025 0.7766 0.0000
vt 0.7029 0.8082 0.0000
vt 0.7029 0.8530 0.0000
vt 0.8820 0.0284 0.0000
vt 0.8820 0.2076 0.0000
vt 0.6870 0.3130 0.0000
vt 0.6870 0.4921 0.0000
vt 0.9268 0.2076 0.0000
vt 0.5975 0.6423 0.0000
vt 0.6423 0.4921 0.0000
vt 0.4631 0.8820 0.0000
vt 0.3577 0.7766 0.0000
vt 0.4631 0.7029 0.0000
vt 0.3577 0.5975 0.0000
vt 0.9268 0.0284 0.0000
vt 0.6423 0.3130 0.0000
# 168 texture coords

g bloc_enigme1_lp
s 4
f 17/2/1 22/3/2 15/4/3 1/1/4 
s 8
f 2/6/5 27/11/6 24/12/7 5/5/8 
s 16
f 4/8/9 9/17/10 11/38/11 7/7/12 
s 32
f 3/10/13 18/14/14 20/16/15 8/9/16 
s 64
f 1/24/17 15/26/18 14/33/19 6/20/20 
s 4
f 4/25/21 23/29/22 25/35/23 9/23/24 
s 16
f 13/62/25 16/63/26 11/38/27 9/17/28 
s 64
f 3/64/29 8/91/30 12/92/31 10/34/32 
f 12/92/33 8/91/34 45/101/35 56/102/36 
s 4
f 9/23/37 25/35/38 26/41/39 13/39/40 
s 64
f 10/34/41 12/92/42 14/33/43 15/26/44 
s 16
f 2/65/45 5/66/46 16/63/47 13/62/48 
f 16/63/49 5/66/50 37/67/51 54/68/52 
s 4
f 27/45/53 26/41/54 22/3/55 17/2/56 
s 8
f 1/15/57 6/21/58 19/32/59 17/13/60 
s 32
f 23/18/61 28/19/62 20/16/63 18/14/64 
s 4
f 3/47/65 10/50/66 21/51/67 18/46/68 
f 10/50/69 15/4/70 22/3/71 21/51/72 
s 8
f 17/13/73 19/32/74 24/12/75 27/11/76 
s 4
f 18/46/77 21/51/78 25/35/79 23/29/80 
f 2/52/81 13/39/82 26/41/83 27/45/84 
s 32
f 4/22/85 7/30/86 28/19/87 23/18/88 
f 28/19/89 7/30/90 41/42/91 59/69/92 
s off
f 24/27/93 19/28/94 29/31/95 30/37/96 
s 1
f 29/31/97 22/88/98 26/89/99 30/37/100 
s off
f 11/43/101 16/44/102 30/128/103 32/40/104 
s 2
f 30/128/105 26/134/106 25/135/107 32/40/108 
s off
f 20/54/109 28/55/110 32/161/111 31/36/112 
s 1
f 32/161/113 25/48/114 21/53/115 31/36/116 
s off
f 14/56/117 12/57/118 31/72/119 29/49/120 
s 2
f 31/72/121 21/73/122 22/87/123 29/49/124 
s 16
f 7/7/125 11/38/126 44/74/127 41/83/128 
s 32
f 8/9/129 20/16/130 48/116/131 45/125/132 
s 4
f 34/61/133 33/58/134 36/59/135 35/60/136 
s 8
f 38/80/137 37/70/138 40/71/139 39/79/140 
s 16
f 42/85/141 41/83/142 44/74/143 43/84/144 
s 32
f 46/130/145 45/125/146 48/116/147 47/126/148 
s 64
f 33/124/149 49/121/150 50/122/151 36/123/152 
s 4
f 42/78/153 43/75/154 52/76/155 51/77/156 
s 16
f 53/99/157 43/84/158 44/74/159 54/68/160 
s 64
f 46/137/161 55/136/162 56/102/163 45/101/164 
s 4
f 43/75/165 53/95/166 57/96/167 52/76/168 
s 64
f 55/136/169 36/123/170 50/122/171 56/102/172 
s 16
f 38/104/173 53/99/174 54/68/175 37/67/176 
s 4
f 39/97/177 34/61/178 35/60/179 57/96/180 
s 8
f 33/113/181 34/81/182 58/93/183 49/112/184 
s 32
f 51/131/185 47/126/186 48/116/187 59/69/188 
s 8
f 19/32/189 6/21/190 49/112/191 58/93/192 
s 4
f 46/111/193 47/98/194 60/105/195 55/106/196 
f 55/106/197 60/105/198 35/60/199 36/59/200 
s 8
f 34/81/201 39/79/202 40/71/203 58/93/204 
s 4
f 47/98/205 51/77/206 52/76/207 60/105/208 
f 38/120/209 39/97/210 57/96/211 53/95/212 
s 32
f 42/148/213 51/131/214 59/69/215 41/42/216 
s off
f 40/82/217 62/86/218 61/90/219 58/94/220 
s 1
f 61/90/221 62/86/222 57/140/223 35/149/224 
s off
f 44/100/225 63/103/226 62/143/227 54/115/228 
s 2
f 62/143/229 63/103/230 52/141/231 57/142/232 
s off
f 48/117/233 64/114/234 63/155/235 59/129/236 
s 1
f 63/155/237 64/114/238 60/138/239 52/154/240 
s off
f 50/132/241 61/107/242 64/110/243 56/133/244 
s 2
f 64/110/245 61/107/246 35/108/247 60/109/248 
s 8
f 5/5/249 24/12/250 40/71/251 37/70/252 
s 64
f 6/20/253 14/33/254 50/122/255 49/121/256 
s 4
f 62/165/257 30/163/258 16/151/259 54/150/260 
s 16
f 40/144/261 24/145/262 30/163/263 62/165/264 
s 4
f 50/152/265 14/153/266 29/164/267 61/166/268 
s 16
f 61/166/269 29/164/270 19/119/271 58/118/272 
s 4
f 48/127/273 20/139/274 31/160/275 64/167/276 
s 8
f 64/167/277 31/160/278 12/157/279 56/156/280 
s 4
f 63/168/281 32/162/282 28/147/283 59/146/284 
s 8
f 44/158/285 11/159/286 32/162/287 63/168/288 
# 72 polygons

